<svg id="OutlineExpand" enable-background="new 0 0 64 64" height="512" viewBox="0 0 64 64" width="512" xmlns="http://www.w3.org/2000/svg"><path d="m56 2h-43c-3.309 0-6 2.691-6 6v48c0 3.309 2.691 6 6 6h43c.552 0 1-.448 1-1v-58c0-.552-.448-1-1-1zm-43 2h42v46h-6v-6c0-2.77-1.286-5.356-3.416-7.043 1.876-1.789 3.124-4.229 3.371-6.957h.045c1.092 0 2.15-.455 2.902-1.247.763-.804 1.15-1.857 1.092-2.966-.109-2.081-1.868-3.72-4.032-3.785-.511-6.704-6.129-12.002-12.962-12.002h-8c-6.832 0-12.45 5.297-12.962 12h-.038c-1.092 0-2.15.455-2.902 1.247-.763.804-1.15 1.857-1.092 2.966.109 2.083 1.872 3.724 4.039 3.785.247 2.728 1.495 5.169 3.371 6.958-2.13 1.688-3.416 4.274-3.416 7.044v6h-2c-1.538 0-2.937.586-4 1.54v-43.54c0-2.206 1.794-4 4-4zm17.8 18.8c2.669 0 4.84-2.171 4.84-4.84 0-2.245-1.827-4.072-4.072-4.072-1.906 0-3.458 1.551-3.458 3.458h2c0-.804.654-1.458 1.458-1.458 1.143 0 2.072.929 2.072 2.072 0 1.566-1.274 2.84-2.84 2.84-2.095 0-3.8-1.705-3.8-3.8 0-2.757 2.243-5 5-5h4c6.065 0 11 4.935 11 11 0 .552.448 1 1 1h.83c1.14 0 2.112.848 2.167 1.891.029.556-.165 1.083-.546 1.485s-.897.624-1.451.624h-1c-.552 0-1 .448-1 1 0 4.962-4.038 9-9 9-.379 0-.725.214-.895.553-.734 1.468-1.883 2.447-5.105 2.447s-4.371-.979-5.105-2.447c-.17-.339-.516-.553-.895-.553-4.962 0-9-4.038-9-9 0-.552-.448-1-1-1h-.83c-1.14 0-2.112-.848-2.167-1.891-.029-.556.165-1.083.546-1.485s.897-.624 1.451-.624h1c.552 0 1-.448 1-1 0-5.747 4.433-10.472 10.058-10.952-1.271 1.268-2.058 3.02-2.058 4.952 0 3.198 2.602 5.8 5.8 5.8zm-10.749 15.44c1.56 1.008 3.385 1.638 5.351 1.744 1.264 2.08 3.327 3.016 6.598 3.016s5.334-.936 6.599-3.016c1.966-.106 3.791-.736 5.351-1.744 1.889 1.292 3.05 3.441 3.05 5.76v6h-30v-6c0-2.319 1.161-4.468 3.051-5.76zm34.949 21.76h-42c-2.206 0-4-1.794-4-4s1.794-4 4-4h42z"/><path d="m32 37c2.206 0 4-1.794 4-4v-1c0-.552-.448-1-1-1h-6c-.552 0-1 .448-1 1v1c0 2.206 1.794 4 4 4zm2-4c0 1.103-.897 2-2 2s-2-.897-2-2z"/><circle cx="39" cy="26" r="2"/><circle cx="25" cy="26" r="2"/></svg>