<svg id="OutlineExpand" enable-background="new 0 0 64 64" height="512" viewBox="0 0 64 64" width="512" xmlns="http://www.w3.org/2000/svg"><path d="m24 23v-4c0-3.711-2.906-6.749-6.561-6.978.967-1.065 1.561-2.474 1.561-4.022 0-3.309-2.691-6-6-6s-6 2.691-6 6c0 1.548.594 2.957 1.561 4.022-3.655.229-6.561 3.267-6.561 6.978v4c0 .553.447 1 1 1h20c.553 0 1-.447 1-1zm-11-19c2.206 0 4 1.794 4 4s-1.794 4-4 4-4-1.794-4-4 1.794-4 4-4zm9 18h-18v-3c0-2.757 2.243-5 5-5h8c2.757 0 5 2.243 5 5z"/><path d="m55.439 50.022c.967-1.065 1.561-2.474 1.561-4.022 0-3.309-2.691-6-6-6s-6 2.691-6 6c0 1.548.594 2.957 1.561 4.022-3.655.229-6.561 3.267-6.561 6.978v4c0 .553.447 1 1 1h20c.553 0 1-.447 1-1v-4c0-3.711-2.906-6.749-6.561-6.978zm-4.439-8.022c2.206 0 4 1.794 4 4s-1.794 4-4 4-4-1.794-4-4 1.794-4 4-4zm9 18h-18v-3c0-2.757 2.243-5 5-5h8c2.757 0 5 2.243 5 5z"/><path d="m35.786 28c-1.132 0-2.195.456-2.992 1.285l-.794.825-.794-.825c-.797-.829-1.86-1.285-2.992-1.285-1.133 0-2.196.456-2.993 1.285-1.621 1.684-1.621 4.425 0 6.11l6.059 6.298c.188.197.449.307.72.307s.532-.11.721-.307l6.059-6.298c1.621-1.686 1.621-4.427 0-6.11-.798-.829-1.861-1.285-2.994-1.285zm1.552 6.009-5.338 5.549-5.338-5.549c-.885-.92-.886-2.417 0-3.337.417-.434.968-.672 1.552-.672.583 0 1.134.238 1.551.672l1.515 1.574c.377.393 1.064.393 1.441 0l1.515-1.574c.834-.869 2.269-.867 3.103 0 .885.92.884 2.417-.001 3.337z"/><path d="m32.293 11.293-4 4c-.391.391-.391 1.023 0 1.414l4 4 1.414-1.414-2.293-2.293h18.586v19h2v-20c0-.553-.447-1-1-1h-19.586l2.293-2.293z"/><path d="m31.707 49.293-1.414 1.414 2.293 2.293h-18.586v-25h-2v26c0 .553.447 1 1 1h19.586l-2.293 2.293 1.414 1.414 4-4c.391-.391.391-1.023 0-1.414z"/></svg>